<?xml version="1.0" encoding="utf-8"?>

<!DOCTYPE svg PUBLIC "-//W3C//DTD SVG 1.1//EN" "http://www.w3.org/Graphics/SVG/1.1/DTD/svg11.dtd">
<!-- Uploaded to: SVG Repo, www.svgrepo.com, Generator: SVG Repo Mixer Tools -->
<svg version="1.1" id="_x32_" xmlns="http://www.w3.org/2000/svg" xmlns:xlink="http://www.w3.org/1999/xlink" 
	 viewBox="0 0 512 512"  xml:space="preserve">
<style type="text/css">
	.st0{fill:#000000;}
</style>
<g>
	<polygon class="st0" points="84.182,371.191 151.254,409.922 158.842,396.774 91.77,358.059 	"/>
	<rect x="214.537" y="287.175" class="st0" width="15.172" height="77.446"/>
	<polygon class="st0" points="84.182,280.605 91.77,293.738 158.842,255.014 151.254,241.883 	"/>
	<polygon class="st0" points="286.082,371.191 353.158,409.922 360.746,396.774 293.666,358.059 	"/>
	<rect x="416.438" y="287.175" class="st0" width="15.176" height="77.446"/>
	<polygon class="st0" points="286.082,280.605 293.666,293.738 360.746,255.014 353.158,241.883 	"/>
	<path class="st0" d="M468.017,381.265V261.779l-103.483-59.755v-70.146h-15.172v70.146l-93.364,53.915l-100.949-58.287L51.57,257.4
		L7.588,231.995L0,245.135l43.983,25.396v110.734L0,406.654l7.588,13.148l43.975-25.396l103.486,59.739l100.949-58.279
		l100.952,58.279l103.488-59.739l43.974,25.396L512,406.654L468.017,381.265z M245.883,378.337l-90.834,52.439l-90.833-52.439
		V273.451l90.829-52.447l90.838,52.447V378.337z M447.784,378.337l-90.834,52.439l-90.833-52.439V273.451l90.833-52.447
		l90.834,52.447V378.337z"/>
	<path class="st0" d="M331.051,122.104h13.89c0.654,0,1.091-0.438,1.091-1.095V97.421c0-0.446,0.22-0.657,0.653-0.657h24.278
		c0.438,0,0.657,0.211,0.657,0.657v23.588c0,0.657,0.438,1.095,1.095,1.095h13.886c0.657,0,1.091-0.438,1.091-1.095V58.959
		c0-0.658-0.434-1.104-1.091-1.104h-13.886c-0.657,0-1.095,0.446-1.095,1.104v22.825c0,0.438-0.219,0.657-0.657,0.657h-24.278
		c-0.433,0-0.653-0.219-0.653-0.657V58.959c0-0.658-0.438-1.104-1.091-1.104h-13.89c-0.661,0-1.095,0.446-1.095,1.104v62.051
		C329.956,121.667,330.39,122.104,331.051,122.104z"/>
</g>
</svg>